<?xml version="1.0" standalone="no"?>
<!DOCTYPE svg PUBLIC "-//W3C//DTD SVG 20010904//EN"
 "http://www.w3.org/TR/2001/REC-SVG-20010904/DTD/svg10.dtd">
<svg version="1.0" xmlns="http://www.w3.org/2000/svg"
 width="750.000000pt" height="750.000000pt" viewBox="0 0 750.000000 750.000000"
 preserveAspectRatio="xMidYMid meet">

<g transform="translate(0.000000,750.000000) scale(0.100000,-0.100000)"
fill="#000000" stroke="none">
<path d="M4210 6551 c-133 -48 -190 -130 -190 -272 0 -43 4 -80 9 -84 5 -3 13
-20 16 -37 4 -18 14 -38 21 -46 19 -18 18 -52 -1 -52 -8 0 -15 -4 -15 -9 0 -5
-12 -12 -27 -16 -15 -3 -30 -10 -33 -13 -7 -10 -68 -52 -75 -52 -11 0 -165
-157 -165 -169 0 -6 -7 -11 -15 -11 -8 0 -15 -6 -15 -13 0 -8 -9 -25 -20 -38
-28 -34 -33 -41 -54 -80 -60 -111 -106 -204 -111 -230 -4 -16 -11 -29 -15 -29
-5 0 -12 -17 -16 -37 -4 -21 -10 -42 -14 -48 -5 -5 -11 -32 -15 -60 -4 -27
-11 -54 -15 -60 -4 -5 -10 -23 -14 -40 -10 -43 -38 -105 -48 -105 -4 0 -8 -5
-8 -10 0 -12 -41 -73 -52 -78 -5 -2 -8 -8 -8 -14 0 -32 -181 -168 -224 -168
-6 0 -24 -7 -39 -15 -16 -8 -52 -17 -80 -20 -195 -21 -314 -38 -329 -46 -9 -5
-36 -12 -59 -15 -24 -4 -54 -13 -68 -21 -14 -7 -31 -13 -38 -13 -6 0 -24 -6
-40 -14 -15 -8 -46 -22 -68 -32 -22 -9 -56 -26 -75 -36 -19 -11 -47 -25 -62
-31 -16 -6 -28 -15 -28 -19 0 -4 -5 -8 -11 -8 -12 0 -129 -76 -165 -107 -12
-10 -44 -36 -70 -58 -62 -51 -137 -127 -189 -189 -22 -26 -48 -57 -57 -67 -10
-11 -18 -21 -18 -24 0 -6 -40 -65 -50 -75 -9 -9 -30 -44 -40 -67 -5 -13 -14
-23 -20 -23 -5 0 -10 -7 -10 -15 0 -8 -13 -38 -28 -67 -16 -29 -39 -82 -52
-118 -13 -36 -27 -67 -30 -70 -4 -3 -10 -22 -14 -44 -4 -21 -11 -46 -16 -55
-45 -85 -82 -464 -57 -583 l8 -38 1978 0 1979 0 6 23 c3 12 9 96 12 187 8 216
-4 324 -61 555 -10 39 -20 118 -22 176 -5 108 4 155 42 230 25 47 110 127 155
145 8 3 29 12 45 19 37 16 132 32 245 40 47 4 90 10 95 15 6 4 26 10 46 14 35
6 85 26 119 46 8 5 35 20 59 32 56 29 79 47 158 128 100 101 169 216 229 385
27 76 29 89 29 245 l0 165 -34 70 c-51 105 -114 195 -171 245 -28 25 -65 57
-80 72 -16 14 -38 29 -49 33 -12 3 -21 11 -21 16 0 5 -7 9 -15 9 -7 0 -18 6
-22 13 -4 7 -19 18 -33 24 -14 7 -47 26 -75 42 -27 16 -88 48 -135 71 -88 43
-93 46 -175 80 -27 11 -58 25 -67 30 -10 6 -23 10 -29 10 -6 0 -25 6 -42 14
-67 28 -94 39 -166 62 -40 13 -82 24 -92 24 -10 0 -20 4 -23 9 -4 5 -29 12
-56 16 -27 4 -52 10 -55 15 -3 4 -34 11 -70 15 -36 3 -65 10 -65 15 0 4 -74
11 -165 15 -185 8 -187 9 -242 102 -14 24 -29 43 -34 43 -5 0 -9 6 -9 14 0 8
-7 16 -15 20 -8 3 -15 11 -15 18 0 7 -16 27 -36 43 -20 17 -42 35 -48 40 -33
28 -51 37 -123 59 -62 19 -84 19 -143 -3z"/>
<path d="M890 2664 c-84 -29 -131 -107 -116 -190 8 -39 77 -114 105 -114 9 0
23 -6 30 -12 9 -10 595 -13 2859 -13 2516 0 2850 2 2866 15 84 70 104 110 93
190 -6 45 -29 79 -77 111 l-35 24 -2840 2 c-2540 2 -2845 0 -2885 -13z"/>
<path d="M1716 2043 c-31 -5 -40 -11 -91 -61 -37 -36 -51 -82 -42 -137 5 -33
37 -75 57 -75 6 0 10 -7 10 -15 0 -9 9 -15 23 -15 12 0 35 -7 51 -15 25 -13
282 -15 2101 -15 l2073 0 52 27 c59 31 85 60 102 114 9 33 8 45 -8 81 -21 47
-35 63 -79 93 -30 20 -47 20 -2125 21 -1152 1 -2108 -1 -2124 -3z"/>
<path d="M3093 1443 c-18 -2 -33 -8 -33 -13 0 -4 -11 -11 -25 -14 -51 -13 -70
-45 -70 -118 0 -63 2 -68 34 -97 18 -16 46 -33 62 -36 16 -4 29 -11 29 -16 0
-12 1327 -12 1334 0 3 5 18 12 33 16 37 9 75 52 92 102 13 38 12 44 -10 84
-16 29 -40 52 -69 69 l-45 25 -650 1 c-357 1 -665 -1 -682 -3z"/>
</g>
</svg>
